<?xml version="1.0" encoding="utf-8"?>
<!-- Generator: Adobe Illustrator 19.2.0, SVG Export Plug-In . SVG Version: 6.00 Build 0)  -->
<svg version="1.1" id="Layer_1" xmlns="http://www.w3.org/2000/svg" xmlns:xlink="http://www.w3.org/1999/xlink" x="0px" y="0px"
	 viewBox="0 0 1041.1 131.1" style="enable-background:new 0 0 1041.1 131.1;" xml:space="preserve">
<style type="text/css">
	.st0{fill-rule:evenodd;clip-rule:evenodd;fill:#808080;}
	.st1{fill-rule:evenodd;clip-rule:evenodd;fill:#616161;}
	.st2{fill-rule:evenodd;clip-rule:evenodd;fill:#0D405C;}
	.st3{fill:#7F7F7F;}
	.st4{fill:#2B4A6F;}
</style>
<polygon class="st0" points="87,1.4 113.5,1.4 113.5,12.9 91.8,12.9 "/>
<polygon class="st0" points="25.4,1.4 67.8,104 69.1,117 53.5,130.9 0,1.4 "/>
<polygon class="st0" points="119.4,1.4 107,1.4 53.5,130.9 66,130.9 "/>
<polygon class="st1" points="88.9,45.1 76.2,75.8 82.5,90.9 95.1,60.2 "/>
<polygon class="st2" points="78.9,1.4 121.3,104 122.6,117 107,130.9 53.5,1.4 "/>
<polygon class="st2" points="172.9,1.4 160.4,1.4 107,130.9 119.4,130.9 "/>
<g>
	<path class="st3" d="M242.7,117.7l0.4,7.4c-1.9,3.2-5.6,5.7-12.1,5.7c-10.6,0-17.4-5.9-17.4-15.7c0-9.6,6.6-15.6,17.6-15.6
		c4.6,0,8.2,1.1,10.7,2.3l0.1,7.4h-0.4c-1.6-5.6-5.3-7.9-10-7.9c-6.8,0-11,5.3-11,13.7c0,8.5,4,13.8,10.4,14c6.6,0,10-2.9,11.3-11.3
		H242.7z"/>
	<path class="st3" d="M281.2,127.4c0.9,1.8,2.4,2.5,3.7,2.5h0.4v0.4h-13.7v-0.4h0.4c1.1,0,2.3-1,1.7-2.7l-2.1-5.3h-10.1l-2.2,5.3
		c-0.7,1.7,0.5,2.7,1.6,2.7h0.4v0.4H252v-0.4h0.4c1.2,0,2.7-0.7,3.6-2.4l9.9-22.5c0.3-0.7,2-4.4,2.1-5.6h0.4L281.2,127.4z
		 M270.8,120l-4.2-10.6l-4.4,10.6H270.8z"/>
	<path class="st3" d="M308.3,100.2c7.4,0,10.5,3.5,10.7,8.2c0.3,7.4-7.7,11.5-13.8,7.5l0-0.4c0,0,5.2,0.5,6.7-4.9
		c0.2-0.8,0.3-1.8,0.3-2.6c-0.1-3.7-2.1-6.1-5.5-6.1h-2.9v25.1c0,1.5,1.2,2.7,2.8,2.7h0.5l0,0.4h-13.1l0-0.4h0.5
		c1.5,0,2.7-1.2,2.8-2.7v-24c0-1.4-1.3-2.5-2.7-2.5H294l0-0.4L308.3,100.2z"/>
	<path class="st3" d="M343.1,130.3H330l0-0.4h0.5c1.5,0,2.7-1.2,2.8-2.7v-23.8c0-1.5-1.3-2.7-2.8-2.7H330l0-0.4h13.1l0,0.4h-0.5
		c-1.5,0-2.7,1.2-2.8,2.7v23.8c0,1.5,1.2,2.7,2.8,2.7h0.5L343.1,130.3z"/>
	<path class="st3" d="M381,106.9l-0.4,0v-0.5c0-2.6-1.7-4.3-4.3-4.4h-5.8v25.2c0,1.5,1.3,2.7,2.8,2.7h0.5l0,0.4h-13.1l0-0.4h0.5
		c1.5,0,2.7-1.2,2.8-2.6V102h-5.8c-2.6,0.1-4.3,1.8-4.3,4.4v0.5l-0.4,0v-7.5c0.8,0.3,3.2,0.8,5.1,0.8h17.3c1.8,0,4.3-0.4,5.1-0.8
		V106.9z"/>
	<path class="st3" d="M414.3,127.4c0.9,1.8,2.4,2.5,3.7,2.5h0.4v0.4h-13.7v-0.4h0.4c1.1,0,2.3-1,1.7-2.7l-2.1-5.3h-10.1l-2.2,5.3
		c-0.7,1.7,0.5,2.7,1.6,2.7h0.4v0.4h-9.2v-0.4h0.4c1.2,0,2.7-0.7,3.6-2.4L399,105c0.3-0.7,2-4.4,2.1-5.6h0.4L414.3,127.4z
		 M403.9,120l-4.2-10.6l-4.4,10.6H403.9z"/>
	<path class="st3" d="M449.2,130.3h-22.3l0-0.4h0.5c1.5,0,2.7-1.2,2.8-2.7v-23.8c0-1.5-1.2-2.7-2.8-2.7h-0.5l0-0.4H440l0,0.4h-0.5
		c-1.5,0-2.7,1.2-2.8,2.7v25.1h5.6c4.3,0,7.1-2.7,8.4-6.9h0.4L449.2,130.3z"/>
	<path class="st3" d="M515.2,127.1c0.3,1.7,1.6,2.7,3.1,2.7h0.7v0.4h-12.9v-0.4h0.7c0.9,0,1.8-0.9,1.7-1.8l-1.7-15.6l-8,13.9
		c0,0-1.6,2.7-1.7,4.7h-0.4l-11.1-18.6l-1.7,15.5c-0.1,0.9,0.7,1.8,1.7,1.8h0.7v0.4h-9v-0.4h0.7c1.5,0,2.9-1,3.1-2.7l3.6-27.6h0.4
		l13.3,21.9l12.8-21.9h0.4L515.2,127.1z"/>
	<path class="st3" d="M554.7,127.4c0.9,1.8,2.4,2.5,3.7,2.5h0.4v0.4H545v-0.4h0.4c1.1,0,2.3-1,1.7-2.7l-2.1-5.3h-10.1l-2.2,5.3
		c-0.7,1.7,0.5,2.7,1.6,2.7h0.4v0.4h-9.2v-0.4h0.4c1.2,0,2.7-0.7,3.6-2.4l9.9-22.5c0.3-0.7,2-4.4,2.1-5.6h0.4L554.7,127.4z
		 M544.2,120l-4.2-10.6l-4.4,10.6H544.2z"/>
	<path class="st3" d="M601.4,100.2l0,0.4h-0.8c-1.4,0-2.6,1.1-2.7,2.6v22.2c0,3.2,0.5,5.5,0.5,5.5H598l-21.7-20.7v17.1
		c0,1.4,1.2,2.6,2.7,2.6h0.8l0,0.4h-13l0-0.4h0.8c1.4,0,2.6-1.2,2.7-2.6v-22.3c0-3.2-0.5-5.4-0.5-5.4h0.4l21.7,20.7v-17
		c0-1.4-1.2-2.6-2.7-2.6h-0.8l0-0.4H601.4z"/>
	<path class="st3" d="M638.7,127.4c0.9,1.8,2.4,2.5,3.7,2.5h0.4v0.4H629v-0.4h0.4c1.1,0,2.3-1,1.7-2.7l-2.1-5.3h-10.1l-2.2,5.3
		c-0.7,1.7,0.5,2.7,1.6,2.7h0.4v0.4h-9.2v-0.4h0.4c1.2,0,2.7-0.7,3.6-2.4l9.9-22.5c0.3-0.7,2-4.4,2.1-5.6h0.4L638.7,127.4z
		 M628.2,120l-4.2-10.6l-4.4,10.6H628.2z"/>
	<path class="st3" d="M684,116.3c-1.4,0-2.2,0.7-2.1,2v7.1c-2,2.6-7.4,5.5-14.2,5.5c-9.8,0-16.3-6-16.3-15.7
		c0-9.6,6.4-15.6,16.5-15.6c4.7,0,9.3,1,11.9,2.3l0.1,7.4h-0.4c-1.6-5.8-5.7-7.9-10.3-7.9c-7,0-10.8,5.3-10.8,14
		c0,8.3,3.5,13.6,9.8,13.6c3.2,0,6.3-1.5,7.3-4.2v-6.6c0-1.3-0.8-2-2.2-2h-0.7v-0.4h12.1v0.4H684z"/>
	<path class="st3" d="M717.5,130.3h-22.3l0-0.4h0.5c1.5,0,2.7-1.2,2.8-2.7v-24c-0.1-1.4-1.3-2.6-2.7-2.6h-0.5l0-0.4h16.5
		c1.9,0,4.3-0.4,5.1-0.8v7.5l-0.4,0v-0.5c0-2.6-1.6-4.3-4.2-4.4H705v12.5h5.7c2.1,0,3.7-1.6,3.6-3.7v-0.4l0.4,0v9.9l-0.4,0V120
		c0-2.1-1.5-3.6-3.6-3.7H705v12.1h5.6c4.3,0,7.1-2.7,8.4-6.9h0.4L717.5,130.3z"/>
	<path class="st3" d="M766.2,127.1c0.3,1.7,1.6,2.7,3.1,2.7h0.7v0.4h-12.9v-0.4h0.7c0.9,0,1.8-0.9,1.7-1.8l-1.7-15.6l-8.1,13.9
		c0,0-1.6,2.7-1.7,4.7h-0.4l-11.1-18.6l-1.7,15.5c-0.1,0.9,0.8,1.8,1.7,1.8h0.7v0.4h-9v-0.4h0.7c1.5,0,2.9-1,3.1-2.7l3.6-27.6h0.4
		l13.3,21.9l12.8-21.9h0.4L766.2,127.1z"/>
	<path class="st3" d="M801.7,130.3h-22.3l0-0.4h0.5c1.5,0,2.7-1.2,2.8-2.7v-24c-0.1-1.4-1.3-2.6-2.7-2.6h-0.5l0-0.4h16.5
		c1.9,0,4.3-0.4,5.1-0.8v7.5l-0.4,0v-0.5c0-2.6-1.6-4.3-4.2-4.4h-7.2v12.5h5.7c2.1,0,3.7-1.6,3.6-3.7v-0.4l0.4,0v9.9l-0.4,0V120
		c0-2.1-1.5-3.6-3.6-3.7h-5.8v12.1h5.6c4.3,0,7.1-2.7,8.4-6.9h0.4L801.7,130.3z"/>
	<path class="st3" d="M848.7,100.2l0,0.4h-0.8c-1.4,0-2.6,1.1-2.7,2.6v22.2c0,3.2,0.5,5.5,0.5,5.5h-0.4l-21.7-20.7v17.1
		c0,1.4,1.2,2.6,2.7,2.6h0.8l0,0.4h-13l0-0.4h0.8c1.4,0,2.6-1.2,2.7-2.6v-22.3c0-3.2-0.5-5.4-0.5-5.4h0.4l21.7,20.7v-17
		c0-1.4-1.2-2.6-2.7-2.6h-0.8l0-0.4H848.7z"/>
	<path class="st3" d="M886.1,106.9l-0.4,0v-0.5c0-2.6-1.7-4.3-4.3-4.4h-5.8v25.2c0,1.5,1.3,2.7,2.8,2.7h0.5l0,0.4h-13.1l0-0.4h0.5
		c1.5,0,2.7-1.2,2.8-2.6V102h-5.8c-2.6,0.1-4.3,1.8-4.3,4.4v0.5l-0.4,0v-7.5c0.8,0.3,3.2,0.8,5.1,0.8H881c1.8,0,4.3-0.4,5.1-0.8
		V106.9z"/>
	<path class="st4" d="M303.2,1.8v0.9h-0.8c-2.8,0-6.7,1.6-8.1,5.7L279,57.2c0,0-1.9,5.9-2,10.3h-0.9l-18.9-52.8l-14,42.5
		c0,0-1.8,5.7-1.9,10.3h-0.9L219.6,8.3c-1.5-4-5.3-5.6-8.1-5.6h-0.7V1.8h20.5v0.9h-0.8c-2.4,0-4.7,2-3.6,5.7l14,44.9L258,0.3l0.9,0
		l18.2,51l12.4-43.2c0.9-3.5-1.1-5.5-3.6-5.5H285V1.8L303.2,1.8z"/>
	<path class="st4" d="M374.6,66.3l0-0.9h1.2c3.2,0,5.8-2.5,5.9-5.7V35.8H344v23.8c0.1,3.2,2.7,5.8,5.9,5.8h1.2l0,0.9h-20.2l0-0.9
		h1.2c3.2,0,5.9-2.6,5.9-5.8V8.4c-0.1-3.2-2.7-5.8-5.9-5.8h-1.2l0-0.9H351l0,0.9h-1.2c-3.2,0-5.8,2.6-5.9,5.7V33h37.8V8.4
		c-0.1-3.2-2.7-5.7-5.9-5.7h-1.2l0-0.9h20.2l0,0.9h-1.2c-3.2,0-5.8,2.6-5.9,5.8v51.1c0.1,3.2,2.7,5.8,5.9,5.8h1.2l0,0.9L374.6,66.3z
		"/>
	<path class="st4" d="M449,66.3h-20.2l0-0.9h1.2c3.2,0,5.8-2.6,5.9-5.8V8.4c-0.1-3.2-2.7-5.8-5.9-5.8h-1.2l0-0.9H449l0,0.9h-1.2
		c-3.2,0-5.8,2.6-5.9,5.7v51.2c0.1,3.2,2.7,5.8,5.9,5.8h1.2L449,66.3z"/>
	<path class="st4" d="M521.7,1.7c4,0,9.4-1,11.1-1.7v11.6l-0.9,0V9.9c0-3-2.3-5.4-5.3-5.5h-17.5v55.3c0.1,3.2,2.7,5.7,5.9,5.7h1.2
		l0,0.9H496l0-0.9h1.2c3.2,0,5.8-2.5,5.9-5.6V4.4h-17.5c-2.9,0.1-5.3,2.5-5.3,5.5v1.6l-0.9,0V0c1.7,0.7,7.1,1.7,11.1,1.7H521.7z"/>
	<path class="st4" d="M601.4,66.3h-38.2l0-0.9h1.2c3.2,0,5.8-2.6,5.9-5.8V8c-0.3-3-2.8-5.3-5.9-5.3h-1.2l0-0.9h27c4,0,9.3-1,11-1.7
		v2.7v1.5v7.4l-0.9,0v-1.6c0-2.9-2.3-5.3-5.2-5.5h-18.8v28.5h15.6c2.5,0,4.5-2.1,4.5-4.5v-1.4l0.9,0v14.6l-0.9,0v-1.4
		c0-2.5-1.9-4.4-4.4-4.5h-15.7v27.6h13.2c9.8,0,13.5-5.1,16.4-12.1h0.9L601.4,66.3z"/>
	<path class="st4" d="M699.5,39.4l-1.1,14.5c-4.9,7.9-13.1,13.7-25.9,13.7c-19.3-0.1-32.9-13.3-32.9-33.7c0-20,13.2-33.5,33.5-33.5
		c9,0,16.4,2.7,21.8,6.2l1.9,13h-0.8C693.1,9,684,3.3,673,3.2c-16.2,0-26.5,12.3-26.5,30.6c0,18.5,10.5,30.6,26,31
		c13.1,0,24.2-6.6,26.3-25.5H699.5z"/>
	<path class="st4" d="M757.5,1.8c11.2,0,18,6.6,18,17.3c0,8.9-6.8,17.6-15.7,17.6c2,0.9,4.8,4,6.6,6.5c0,0,8,11.4,11.5,15.3
		c3.7,4.1,7.1,6.9,12.5,7v0.9h-5.1c-8.6,0-13.2-4.6-16.1-8.1c-1-1.3-11.4-16.4-12.2-17.3c-2.4-3-5.1-6.2-8.5-6.2v-0.9
		c0,0,2.1,0,4.9,0c4.8-0.1,11.8-1.3,14.4-9.6c0.4-1.3,0.6-3.5,0.6-5.5c-0.2-8.3-4.6-13.7-11.4-14.1c-4.7-0.3-10.3,0-11.5-0.1v55
		c0.1,3.2,2.7,5.8,5.9,5.8h1.2l0,0.9h-20.2l0-0.9h1.2c3.2,0,5.8-2.6,5.9-5.8V8.5c-0.1-3.2-2.7-5.8-5.9-5.8h-1.2l0-0.9L757.5,1.8z"/>
	<path class="st4" d="M885.3,34.1c0,20.1-13.5,33.6-33.2,33.6c-19.6,0-33.2-13.4-33.2-33.6c0-20.1,13.5-33.6,33.2-33.6
		C871.7,0.5,885.3,13.9,885.3,34.1z M878.2,34.1c0-18.5-10.4-30.8-26.1-30.8c-15.6,0-26.1,12.3-26.1,30.8s10.4,30.8,26.1,30.8
		C867.7,64.9,878.2,52.5,878.2,34.1z"/>
	<path class="st4" d="M956.4,2.8v1.6v6.1l-0.9,0V9.1c0-2.5-2-4.5-4.5-4.5h-19.5v28.5h15.6c2.5,0,4.5-2.1,4.5-4.5v-1.4l0.9,0v14.6
		l-0.9,0v-1.4c0-2.5-1.9-4.4-4.4-4.5h-15.7v23.7c0.1,3.2,2.7,5.8,5.9,5.8h1.2l0,0.9h-20.2l0-0.9h1.2c3.2,0,5.8-2.6,5.9-5.8V8
		c0-3-2.8-5.3-5.9-5.3h-1.2l0-0.9h27c4,0,9.3-1,11-1.7V2.8z"/>
	<path class="st4" d="M1030,1.7c4,0,9.4-1,11.1-1.7v11.6l-0.9,0V9.9c0-3-2.3-5.4-5.3-5.5h-17.5v55.3c0.1,3.2,2.7,5.7,5.9,5.7h1.2
		l0,0.9h-20.2l0-0.9h1.2c3.2,0,5.8-2.5,5.9-5.6V4.4h-17.5c-2.9,0.1-5.3,2.5-5.3,5.5v1.6l-0.9,0V0c1.7,0.7,7.1,1.7,11.1,1.7H1030z"/>
</g>
</svg>
